<svg xmlns="http://www.w3.org/2000/svg" viewBox="0 0 613.44 306.23"><defs><style>.cls-1{fill:#fff;}</style></defs><title>Fichier 3</title><g id="Calque_2" data-name="Calque 2"><g id="Name_Vecto_" data-name="Name (Vecto)"><path class="cls-1" d="M226.19,169.41q3.54-6.39,7.34-12.81,4.07-6.9,7.83-14l.51-.79q5.58-1.43,11.06-2.75l2.44-.36a8.5,8.5,0,0,0,3.05-1.06q15.24-3.79,27-6.65t16.39-3.73a10.58,10.58,0,0,1,.2-1.24l-3.3.22-2,.14a.86.86,0,0,1,.06-.38l.09-.1c2.3-.48,4.88-1,7.74-1.58l-1-.59a.59.59,0,0,0-.3-.26c.93-.26,1.89-.54,2.87-.87,0-.12,0-.28,0-.47s0-.12,0-.18l-.38,0-2.42.55a.25.25,0,0,0,.08-.2c0-.06,0-.12,0-.19a2.83,2.83,0,0,0,.46-.22l.72-.42a1.15,1.15,0,0,0,0-.19c0-.07,0-.16,0-.29l-3.45.62c-1.07.14-2.13.31-3.19.51a2.34,2.34,0,0,1,0-.67q.74-.33,1.38-.57a2.91,2.91,0,0,1,.84-.24c-.35-1.37-.67-2.76-1-4.19l.29,0a8.39,8.39,0,0,0,1.19-.47,10.32,10.32,0,0,0,1-.54,1.07,1.07,0,0,1,.45-.31,6.23,6.23,0,0,1-2.7.66,2.47,2.47,0,0,1-.49-.35.91.91,0,0,1-.3-.17l1.57-.48a10.19,10.19,0,0,1,1.21-.37l0-.38V114a15.92,15.92,0,0,0,1.69-.21c1.93-.32,4.12-.67,6.55-1q2.58-.94,4.37-1.72c1.2-.53,2.16-1,2.89-1.34a17,17,0,0,0,1.6-.87,2.12,2.12,0,0,0,.62-.51c.09-.13.1-.2,0-.19a76.64,76.64,0,0,0-10,.4c-.69.12-1.37.26-2.05.43a7.06,7.06,0,0,1-2.14.53,26.52,26.52,0,0,0-4.12.66c-.93.19-1.74.34-2.42.45l-3.28.42c-.09-.25-.17-.53-.25-.84-.11-.62-.25-1.24-.41-1.86a.65.65,0,0,0,.27-.11,10.79,10.79,0,0,0,1.21-.37,4.76,4.76,0,0,0,1.09-.64l.36-.22a6.55,6.55,0,0,1-3.74.64,8.72,8.72,0,0,0-2.68.23,5.61,5.61,0,0,0-2.67,1.75l-2.68.56c2.44-1.32,4.71-2.55,6.86-3.69q5.13-.83,12.4-1.9c1.78-.69,3.26-1.28,4.42-1.77s2.11-.92,2.84-1.28a15.09,15.09,0,0,0,1.64-.92,3.65,3.65,0,0,0,.67-.52c.09-.1.1-.15,0-.14a76.78,76.78,0,0,0-10.09.41l-.22,0q9.27-4.64,11.6-5a9,9,0,0,1,2.54.16,9,9,0,0,0,2.54.16,3.7,3.7,0,0,0,1.33-.39,4.53,4.53,0,0,0-.06-1.22,5.08,5.08,0,0,1-.06-1.23,2.7,2.7,0,0,1,.35-1.08l3.48-.48a1.36,1.36,0,0,1,1.4.73,1.36,1.36,0,0,0,1.41.73c1.59-.22,2.45-1.43,2.58-3.65-2.43-1-4.16-1.48-5.17-1.34q-8.7,1.22-27.35,10.38c-3.61,1.79-6.88,3.4-9.84,4.83-1.69.27-3.34.51-4.91.73l-1.17.17q5.67-3.14,13.54-7.25,21.46-11.2,25.82-11.81a1.66,1.66,0,0,1,1.53.61,1.65,1.65,0,0,0,1.53.61q3.26-.45,6.3-6l-7,1a8.73,8.73,0,0,0-2.71,1.2,8.76,8.76,0,0,1-2.72,1.2c-.58.08-1.7-.66-3.35-2.21q-42.33,15.74-43.21,15.86a1.44,1.44,0,0,1-1.22-.45L274,76.11q5.86-6,23.11-12.36t25.77-9.64c-1.12-1.35-2.26-2-3.41-1.79s-6.4,2.19-16.15,6.15Q287.1,65,284.44,65.81q6.56-4.61,18.25-9.31,7.19-2.85,18.83-7.14a39.17,39.17,0,0,0-4.28-1.67,4.47,4.47,0,0,0,2.32-3.2,1.11,1.11,0,0,0-.3-1l-4.66-.38q-24.74,10-36.94,15.41a78.94,78.94,0,0,1,.49-17.76l.57-4.61q18.11-9.91,44.84-18.76,6-2.07,13.2-8.21-12.15,1.49-28,8.4-18.33,8.31-27.61,12.47c-.53-.34-.69-.73-.49-1.17l.1-.83Q317.33,9,328.64,7.43a8.58,8.58,0,0,1,2.12.12,8.66,8.66,0,0,0,2.13.12q2.82-.39,12.27-7.67l-6.74.93a18.25,18.25,0,0,0-5.05,1.94,17.63,17.63,0,0,1-4.83,1.9c-.72.1-1.23-.37-1.53-1.43-.37-1.59-.61-2.52-.72-2.78q-14.09,5-23.67,8.22-8.69,2.85-25.51,9.3-.64-3.4-.84-5.24-5.83,5.07-10.59,21.05c0-.31-.08-.62-.13-.94a52.38,52.38,0,0,1-.74-8.64A36.82,36.82,0,0,0,261.42,31a4.4,4.4,0,0,0-1.31-1.46q.48-4-.25-4.91-2.33-1.93-3.09-7.8c-.52-3.9-1-6-1.37-6.18q.32,21.56.19,22.6a26.77,26.77,0,0,1-2.91,9.66,46.7,46.7,0,0,1-.23-11.9,13.84,13.84,0,0,1,1.78-5.8,45,45,0,0,0-4.88,1.5q.71-4-.48-11.66l-2.52,1.38-.82,30.76c-.23,8.24-.29,12.6-.19,13.11L235,94.27l-.82-.29c-2.3.55-3.43.84-3.4.87q-5,.59-19.7-11a70.43,70.43,0,0,1,7.47-1.66,3.48,3.48,0,0,0-.89-3.16,2.69,2.69,0,0,1-2.06,1.1q-4.12.59-3-8.42,1-8.18,5.8-26.11,4-15.37,7.78-26.59c-1.51,1.86-2.69,3.25-3.51,4.19-.74-1-1.38-1.52-1.94-1.58q-9,39.71-12.51,59.54l4.44-39.29a27.4,27.4,0,0,1,2.69-9.63,69.26,69.26,0,0,0-6,10.5l.51-9.33c3-3.29,5.13-5.78,6.49-7.48A34.32,34.32,0,0,0,210,30.05a29.63,29.63,0,0,1-1.19-4.15q-4.75,21-10.17,42.34,3.62-37.72,2.66-38.63l-9.13,57.1q-3.39,1.76-7.6,3.75-13.85,6.54-19.28,7.3c-1.31.18-1.82-.84-1.54-3.08a404.16,404.16,0,0,1,14.09-67.16,130.44,130.44,0,0,0-7.76,16.09q.57-4.61,6.49-23.12a51,51,0,0,0-7.86,16.31q-5,16.55-5,16.74l2.45-19.8a29.46,29.46,0,0,1,1.39-5.17A29.64,29.64,0,0,0,169,23.41a6.09,6.09,0,0,0-4.33-1.26L154.14,65.67q-3,12.1-5,22.21c-.85-.85-1.76-1.69-2.76-2.51q-10.17-7.64-15.52-11a91.72,91.72,0,0,0,15.9-16.19q5.65-9.44,11.5-18.67A42.14,42.14,0,0,0,140.8,29.37a48.52,48.52,0,0,0-21.66-1.94Q107.4,29.07,79.62,41.14q-.75,6.07,1,17.44t1,17.45l-4,32.23c-.21,1.68-.7,4.21-1.47,7.61s-1.27,5.94-1.48,7.61a41.3,41.3,0,0,0,.49,13.31,14.62,14.62,0,0,1,5.15.62l.74.18a2.86,2.86,0,0,0-.16,1,3.77,3.77,0,0,0,.56,1.9,16.78,16.78,0,0,1,1.85,4.82q-8.3-2.7-17.6,4.59a61.6,61.6,0,0,0-6.85,6.25c-.88.88-1.8,1.76-2.75,2.65q-2.56,2.44-5.13,5.08-1.14,1.31-2.28,2.52c-.76.88-1.56,1.75-2.38,2.63-.59.54-1.18,1.12-1.77,1.73a18.68,18.68,0,0,0-2.74,2.74q-2.78,3.6-5.46,7.19-2.41,3.28-4.85,6.39a12.17,12.17,0,0,1-1.77,1.82A10.42,10.42,0,0,0,28,190.7q-2.23,3.18-4.18,6.53-5.09,8.49-10.08,17-2.12,3.65-3.84,7.36-1.71,4-3.23,8c-.27.65-.51,1.27-.72,1.85a83.18,83.18,0,0,0-5.65,19.5Q-1.11,261.19,5,266.06a12.07,12.07,0,0,0,7.3,9.8c1.36.6,2.7,1.23,4,1.9,1.57.83,3.17,1.64,4.8,2.41a7.86,7.86,0,0,0,3.88.11,14.76,14.76,0,0,0,7.47-4.21c1.13-1,2.29-1.86,3.5-2.7a17.82,17.82,0,0,0,3.39-2.88q4.75-5.16,9.4-10.4a161,161,0,0,0,16.15-20.78,179.55,179.55,0,0,0,13.28-25.42q1.55-3.6,3-7.2,1-2.16,1.87-4.39a.85.85,0,0,1,.17-.29.3.3,0,0,0,.18-.11l.21.36a1.05,1.05,0,0,1,.21.27,1,1,0,0,0,.17-.29,1.51,1.51,0,0,0,.34-.59A122.82,122.82,0,0,0,89.12,189a12,12,0,0,0-.77-9.78c-.22-.37-.43-.76-.65-1.19s-.58-1-.87-1.64a19,19,0,0,0-3.1-5.08v-.1a.28.28,0,0,0-.1-.18,6.87,6.87,0,0,0-.56-1.19,10.4,10.4,0,0,1-.87-1.64,28.08,28.08,0,0,0-1.42-2.74q5.92-3.24,11.28-1.06a3.06,3.06,0,0,0,1.52.08,2,2,0,0,1,.66.05,2.8,2.8,0,0,0,0-.76c0-.32.07-.6.09-.86a1.28,1.28,0,0,0-.2-.74l-.74-1.33c.26,0,.53-.05.78-.09a19,19,0,0,0,4.21-.58l6.42-1.58q-.78,3.75,2.52,3.61,1.31-.27,18.59-4.69,4.55-1.26,9.94-2.58-3.27,6-6.45,12.08-3.6,6.67-7.21,13.36-5.19,9.72-10.09,19.52-4.14,8.33-8.49,16.57-2.92,5.6-5.76,11.08-3.34,6.48-6.77,13-6.17,12-11.26,24.42c-.32.78-.68,1.59-1.06,2.44A125.61,125.61,0,0,0,73.42,284c-.29,1.35-.64,2.66-1,3.95a15.23,15.23,0,0,0-.43,6.09,3.19,3.19,0,0,0,1,1.49,15.55,15.55,0,0,0,1.9,1.57,5,5,0,0,0,1.81.87,14.07,14.07,0,0,0,0,4.25A3.69,3.69,0,0,0,77.78,304a10,10,0,0,0,2.14,1.65,3.64,3.64,0,0,0,1.84.63,1.94,1.94,0,0,0,1.27-.89,3.46,3.46,0,0,0,.37-1.4A41.22,41.22,0,0,1,86.16,296a19.55,19.55,0,0,0,.77-1.89c.24-.68.43-1.28.59-1.79a1.84,1.84,0,0,0,.11-1.05,2.71,2.71,0,0,1-.25-2.3,5.3,5.3,0,0,1,1.19-1.83,6.62,6.62,0,0,0,.78-1.1,9.8,9.8,0,0,0,1.6-2.85,4,4,0,0,0,.23-.77A28.71,28.71,0,0,1,96.82,271a21.51,21.51,0,0,0,2.91-4.36,23.35,23.35,0,0,1,2.83-4.26,20.09,20.09,0,0,0,1.43-2.56,20.09,20.09,0,0,1,1.08-2.06,26.67,26.67,0,0,0,1.74-3.62,14.29,14.29,0,0,1,2.51-4.72,25.78,25.78,0,0,0,3.89-6.6,6.2,6.2,0,0,1,.41-1,4.8,4.8,0,0,0,.66-1.27,2.76,2.76,0,0,0,.1-1.43c.69,0,1.1-.15,1.24-.51a1.07,1.07,0,0,0-.22-1.07.39.39,0,0,0-.48-.16,4.18,4.18,0,0,0-.73.43,10.12,10.12,0,0,1-1.09.65,9.4,9.4,0,0,0,.67-1.28,8.66,8.66,0,0,1,1.62-2.48.57.57,0,0,1,.33.6,2.41,2.41,0,0,1-.24.63,1.47,1.47,0,0,0-.15.62c0,.16.14.26.4.31.51.09.84,0,1-.31a3,3,0,0,0,.27-.92,3.72,3.72,0,0,1,.15-.57,7.5,7.5,0,0,1,.84-1.48,5.22,5.22,0,0,0,.82-1.24,2.46,2.46,0,0,0,.13-1.47.43.43,0,0,1,.12-.25,2.37,2.37,0,0,1,.36-.31.82.82,0,0,1,.32-.16h.1a1.58,1.58,0,0,0,.93-.11c.12-.1.13-.37,0-.81a.65.65,0,0,0-.11-.27.83.83,0,0,1-.12-.33.93.93,0,0,1,.07-.33q1.09-2,2.3-3.75a38.44,38.44,0,0,0,3.76-7.17.65.65,0,0,1,.62.2,2.4,2.4,0,0,1,.28.5,1.61,1.61,0,0,0,.26.45.86.86,0,0,0,.45.25c.33-.71.66-1.4,1-2.05,1.06-2,2.05-4.08,3-6.17.06,0,.09,0,.08-.1a1.72,1.72,0,0,0,.24-.63c0-.22,0-.36-.21-.41a2,2,0,0,1-.6-.38q-.11-.13,0-.33a.82.82,0,0,1,.4-.32,2,2,0,0,0,.36-.26.23.23,0,0,0,.07-.33,3,3,0,0,0,1.82-1.12,6.75,6.75,0,0,0,.91-1.82c.11-.25.22-.51.32-.78q5.53-11.62,11.85-22.85,1.77-3.24,3.52-6.58,3.52-6.39,7.34-12.8c1.8-3.07,3.54-6.16,5.26-9.28a5.19,5.19,0,0,0,.77,2.29c.53.81,1.51,1.14,3,1a19.3,19.3,0,0,0,2-.24,18.5,18.5,0,0,0,4.22-.57c2.1-.53,4.24-1.05,6.41-1.58-.52,2.49.32,3.7,2.52,3.61q1.31-.28,18.59-4.69,4.54-1.26,9.94-2.58-3.27,6-6.44,12.07l-7.21,13.37q-5.19,9.72-10.09,19.51-4.16,8.33-8.5,16.57-2.92,5.59-5.76,11.09-3.33,6.46-6.76,12.95-6.18,12-11.27,24.42c-.32.78-.67,1.6-1.06,2.44a127.23,127.23,0,0,0-5.37,16.64,37.61,37.61,0,0,1-1.05,3.95,15.37,15.37,0,0,0-.43,6.08,3.23,3.23,0,0,0,1,1.49A14.79,14.79,0,0,0,150,291.9a4.74,4.74,0,0,0,1.81.87,13.82,13.82,0,0,0,0,4.26,3.62,3.62,0,0,0,1.11,1.72,10.12,10.12,0,0,0,2.15,1.64,3.64,3.64,0,0,0,1.84.63,1.86,1.86,0,0,0,1.26-.89,3.42,3.42,0,0,0,.38-1.39,40.76,40.76,0,0,1,2.76-7.95,19.78,19.78,0,0,0,.76-1.9c.24-.68.44-1.27.59-1.79a1.83,1.83,0,0,0,.11-1.05,2.75,2.75,0,0,1-.25-2.3,5.48,5.48,0,0,1,1.2-1.83,6.92,6.92,0,0,0,.77-1.09,9.72,9.72,0,0,0,1.6-2.86,3.22,3.22,0,0,0,.23-.77A28.73,28.73,0,0,1,172,265.75a21.31,21.31,0,0,0,2.91-4.37,24.06,24.06,0,0,1,2.83-4.26,18.33,18.33,0,0,0,1.43-2.56,21.25,21.25,0,0,1,1.09-2.06,27.23,27.23,0,0,0,1.73-3.62,14.53,14.53,0,0,1,2.51-4.71,25.59,25.59,0,0,0,3.9-6.61,6,6,0,0,1,.4-1,4.89,4.89,0,0,0,.67-1.28,2.62,2.62,0,0,0,.09-1.42c.69,0,1.11-.16,1.24-.51a1.06,1.06,0,0,0-.22-1.07.38.38,0,0,0-.48-.16,5.08,5.08,0,0,0-.73.43,9.28,9.28,0,0,1-1.09.64,8.33,8.33,0,0,0,.67-1.27,8.54,8.54,0,0,1,1.63-2.48c.26.17.37.37.32.59a2.17,2.17,0,0,1-.24.63,1.44,1.44,0,0,0-.14.63c0,.15.14.26.4.3.51.09.83,0,1-.3a3.33,3.33,0,0,0,.26-.92,3.9,3.9,0,0,1,.15-.58,7.08,7.08,0,0,1,.85-1.48,5,5,0,0,0,.81-1.23,2.5,2.5,0,0,0,.14-1.48q0-.09.12-.24a1.92,1.92,0,0,1,.36-.31.82.82,0,0,1,.32-.17H195c.51,0,.82,0,.94-.12s.13-.37,0-.8a1,1,0,0,0-.12-.28.68.68,0,0,1-.11-.32.67.67,0,0,1,.07-.34q1.09-2,2.29-3.75a37.48,37.48,0,0,0,3.76-7.16.68.68,0,0,1,.63.19,3.38,3.38,0,0,1,.27.5,1.55,1.55,0,0,0,.27.46.83.83,0,0,0,.44.25c.33-.72.66-1.4,1-2.06,1.06-2,2.05-4.08,3-6.16.06,0,.09,0,.09-.1a2.41,2.41,0,0,0,.24-.63c0-.22,0-.36-.22-.41a1.88,1.88,0,0,1-.59-.39.27.27,0,0,1,0-.33.89.89,0,0,1,.41-.31,2.7,2.7,0,0,0,.36-.26.26.26,0,0,0,.07-.34,2.88,2.88,0,0,0,1.81-1.12,6.58,6.58,0,0,0,.92-1.81c.1-.26.21-.52.32-.78q5.53-11.64,11.85-22.85Q224.44,172.74,226.19,169.41Zm65.93-51.76h.19a7.06,7.06,0,0,1,1.12-.18,2.51,2.51,0,0,0-.45.41,6,6,0,0,0-.93.16v-.09A.37.37,0,0,0,292.12,117.65ZM284.73,110l.47.29-1,.19Zm-1.58-1,.07,0-.18,0Zm16.34-97.31A84.32,84.32,0,0,1,318.3,6.4l7-1A214.85,214.85,0,0,0,287.74,22l-4.34.6Q286.46,16.79,299.49,11.68Zm-151,33.9,2.3-1.35.28,1.19-2.74,1.41ZM16.22,264.43a52.87,52.87,0,0,1,3.66-14.16c1-2.46,1.87-4.89,2.71-7.28s1.86-5,2.89-7.48a27.82,27.82,0,0,1,1.76-3.15,16.09,16.09,0,0,0,1.68-3.05,111,111,0,0,1,8.93-15.94c1-1.51,1.9-3,2.81-4.45a66.3,66.3,0,0,1,10.53-13.11c.48-.42,1-.79,1.44-1.14.18-.14.38-.31.62-.52a.26.26,0,0,1,.11.18,1.05,1.05,0,0,1,.21.27l-.79.91a3.46,3.46,0,0,1-.34.49.63.63,0,0,0,.11.28,5.73,5.73,0,0,0,.63-.42,6.75,6.75,0,0,0,1.35-1,61.14,61.14,0,0,1,20.63-13.44q-.68,2.6-1.54,5.12Q70.23,196.28,65.9,206A138.17,138.17,0,0,1,57,222.54q-6.5,10.1-13.87,19.69a82.62,82.62,0,0,1-21.31,19.92,17,17,0,0,1-4.32,1.9A10.14,10.14,0,0,1,16.22,264.43ZM78.5,194.1a2.44,2.44,0,0,1-.24.59,194.26,194.26,0,0,1-7.73,19.54,130.8,130.8,0,0,1-8.79,16.5q-6.48,10.19-14,19.78a81.34,81.34,0,0,1-21.23,19.82,20.14,20.14,0,0,1-4.3,2q-4.44,1.44-5.61-.37a8.55,8.55,0,0,0,3.7.13,15.79,15.79,0,0,0,7.37-4.2,25.61,25.61,0,0,1,3.5-2.7,19,19,0,0,0,3.48-3q4.75-5.15,9.4-10.39a156.86,156.86,0,0,0,16.16-20.69A188.52,188.52,0,0,0,73.53,205.7l3-7.2c.59-1.49,1.22-3,1.87-4.48,0-.07,0-.13.17-.21A.66.66,0,0,1,78.5,194.1Zm186.64-86.34-.7-3,1.58-.63.6,3.21Zm-1.25-8.85q1.13-2.22,2.57-12.09,1.21-8.19,4.55-10.91l-2.9,23.44C266.13,99.21,264.73,99.06,263.89,98.91Zm10.39,11c.05-.19.09-.39.14-.63l2-.3Zm15.55-16.81q12.42-5.43,19.79-6.24l-35.93,18.86q-2.16.48-4.35,1l.58-4.71ZM269,71.87l-1.2-.65,3.75-4.43,1,.68Zm3.65-8.73L269,64.46Q273.8,43,274.43,38A202.6,202.6,0,0,1,272.6,63.14Zm18.07-7q10.32-4.94,15.76-7.33l4.19.65q-27.45,12.85-34.33,16.69Q280.33,61,290.67,56.11Zm-14.79-35,1.52-.21-2.81,7.17-1.52.22Zm-7.14,19.71,1.52-.21-4.57,36.84-1.52.21Zm-6.4,42.36.59-.62c-.17,0-.31.08-.47.12l.48-2,1.52-.21-2,8.91-1.74.24ZM259,43.84q1.25,8.88.83,12.23a51.26,51.26,0,0,1-3.11,11.33q-2.83,7.39-5.78,10.47Q254.36,65.46,259,43.84ZM249.44,88l-1.22-.45L254,79.09l1.44.42Zm2.61,3.13-16.6,13.21-.71-1.14L251.11,90ZM252,57.36l1.52-.21-8.1,27.45-1.52.22Zm-7.24,30.83,1.2.66L239,96.6l-1.2-.66Zm-8.18,9.16.71,1.14-3.74,2.57-.71-1.13Zm-17.3-3.57,10.24,5.37a22.23,22.23,0,0,1-10.78-1Zm-10.18-7.43.67,3.2-1.31.18L207.47,87Zm20.69,17.5a14.38,14.38,0,0,1-3,2.28,16.11,16.11,0,0,1-1.64.37,27.55,27.55,0,0,0-4,.65c-.5.11-1,.2-1.39.27a14.66,14.66,0,0,1-7.16-3.55q-5.13-4.34-5.37-9.24Q224.78,104.13,229.74,103.85ZM204.26,54.3l1.52-.21-1,7.75-1.52.21Zm-2.1,8.32,1.74-.24-2,15.9-1.74.25ZM199.72,82.5l-.84.52,0-.4Zm-32.63,18.3,7.06-3.65.5,1.14-7.75,4Zm-2.23,9.36,28.65-15.68c.15.4.3.78.46,1.14l-29.27,15.8Zm29.46-11.89,1-.14a7,7,0,0,0,1,1.24q-22.4,12.51-37.11,18.58Zm-41.15-1.35,5.44-36.29,1.52-.21-6,41.36-1.08.15a20.58,20.58,0,0,0,.5-2.33ZM151.91,106l1.74-.24-.51,4.18-1.74.24ZM138.29,81.45q7,4.08,6.29,7.87Q128,85.26,119.72,83.1c4.25-3.33,6.75-5,7.47-5.15Q131.32,77.38,138.29,81.45Zm-32.13-1-.47-1.38,29.45-22.19.72,1.14ZM121,77.57l-.2,1.67-5.33,1.56.19-1.46Zm14.35-20.92-.53-.95,8.93-8.24.52,1ZM98,81.18A201.5,201.5,0,0,0,96.54,46l5.95-1.44q3.75-.93,5.92-1.23a103.39,103.39,0,0,1,16.1-.59q11.28.3,14.72,1.87Q132.36,60.36,98,81.18Zm11.6,8.06q5.65-.78,16.17,2.29T139,98.12l-3.78,4.64Q110.17,96.35,97,94.28,107.54,89.93,109.55,89.24ZM125,75.17,124.26,74l16.83-13.45.72,1.14Zm18.46-19.63-1.2-.66,2.56-3.44,1.23.45ZM145,39.27l-5.86-1,.16-1.25,6.29,1Zm-18.33-9q7-1,18.3,4.05a11.56,11.56,0,0,1-2.14,0,12,12,0,0,0-2.35,0c-1,.14-1.55.56-1.64,1.24,0,0,0,.59,0,1.67A61.47,61.47,0,0,0,121.47,31Zm-18.42,3.79,6.31-.87-.18,1.46-6.31.88Zm3.2,3.47q11.31-1.57,24.47,2.57-7.24-1.87-20.67-.43-14.52,1.61-21.91,2.63Q106.26,38.27,111.47,37.55ZM93,55.33l1.74-.24-1.59,28.4-1.74.24Zm-1.49,36.2,2.1,2-1,1.16-2.1-2ZM88.83,75.45l1.52-.21-.85,6.91L88,82.36Zm-1,8.17,1.52-.22-.52,4.19-1.52.21ZM84.44,50.55q2.91,17.91,2.18,23.77L83.13,90.44Q84.08,63.77,84.44,50.55ZM79,130.71l-1.74.25L82,92.44l1.74-.24Zm4.23,2.09L81.7,133l5.11-41.23,1.52-.21Zm4-8.58,4.36-26.53,1.52-.21L89,124Zm3.55,5.88q1.43-11.5,5.87-31.87,24.68,2.53,35,7.07-6.84,6.92-19.3,14.3A120.1,120.1,0,0,1,90.82,130.1Zm40.38-19-3.76,2.79-.5-1.17,3.52-2.54Zm-4.28,3.48-7.86,4.79.16-1.26,7.21-4.7Zm-9,5.57-14.74,8.62.15-1.25L117.4,119ZM100.66,130l-5.35,1.77.21-1.67,5.32-1.56Zm1.3,2.76q15.69-7.2,37.17-23.52c1,0,1.47.21,1.42.63l-.38,1.28a256.68,256.68,0,0,1-27.23,19.63Q107.45,131.79,102,132.73Zm49.88-9.43q-6,1.26-11.76,2.23t-11.58,2.13c-3,.64-6.09,1.25-9.14,1.85,1-.62,2-1.25,3-1.92A206.08,206.08,0,0,0,145.44,110l-.91,7.32a5,5,0,0,0,3.12-1q1.33,4.76,3,6.57a5.46,5.46,0,0,1,3.47-2.13,1.67,1.67,0,0,1,1.53.62,1.72,1.72,0,0,0,1,.59C155.12,122.35,153.51,122.8,151.84,123.3Zm6.24-23.92-1.53.21.73-5.86,1.52-.21Zm24.31,15.75q-8,2.36-15.31,4.18c-2.66.59-5.51,1.29-8.49,2.09q6.6-2.84,43.23-21.11,5.75,5,10.13,8.22l-3,.43q-2.82.39-6.45,1.11A200.4,200.4,0,0,0,182.39,115.13Zm33.48-2.08a5.59,5.59,0,0,0-2.67,1.74c-1.24.28-2.61.56-4.1.86.35-.34.65-.65.88-.92l.7-.8q-2.91.39-5.82.68t-5.81.69a.28.28,0,0,0,.08-.19c.05-.2.1-.42.14-.68l15-2.26c.77-.13,1.6-.27,2.47-.4.64.39,1.24.74,1.82,1A8.34,8.34,0,0,0,215.87,113.05Zm3.9,2.33q-.17-.93-.42-1.86a1,1,0,0,0,.28-.12h0a11.89,11.89,0,0,0,3.2,1.08,5.18,5.18,0,0,0-1.08-3.5l2.6-.4q4.47,1.43,3.9,1.5,6.53-.9,27.35-22a134.08,134.08,0,0,0-.9,15.42,7.35,7.35,0,0,0,4.12-2.21c.7,2.2,1.34,4.08,1.91,5.67-1.07.31-2.14.61-3.23,1-4.75,1.4-9.32,2.65-13.74,3.77a1.13,1.13,0,0,0,.19-.19c.08-.13.09-.19,0-.19a75,75,0,0,0-10,.41c-.68.11-1.36.25-2.05.42a6.66,6.66,0,0,1-2.13.53,27.38,27.38,0,0,0-4.12.66c-.93.2-1.74.35-2.43.46l-3.28.41C219.93,116,219.85,115.69,219.77,115.38Z"/><path class="cls-1" d="M293,227.38l-2.41.74,0-.47c.77-.63,1.55-1.28,2.32-2s1.5-1.18,2.33-1.87a6,6,0,0,1-1.3.28,6.57,6.57,0,0,0-.65.24c.59-.55,1.16-1.09,1.69-1.63l1.42-1.33a.39.39,0,0,1-.12-.28h-.09a.3.3,0,0,0-.18.11c-.55.35-1.12.71-1.73,1.06v-.19c-.17-.61-.3-1.2-.41-1.76q-5.85,4.18-11.74,7.9,6.63-5.37,6.64-9.25l-2.77,1c0-.07.24-.35.74-.86s1.09-1.07,1.78-1.68,1.35-1.2,2-1.75a10.69,10.69,0,0,0-1.11.27,5,5,0,0,1-.84.15c.77-.68,1.48-1.33,2.13-1.94l1.07-1-.2-.18v-.09a4.91,4.91,0,0,0-.63.42l-1.27.84q-.27-1.11-.51-2a158.62,158.62,0,0,1-43.7,23.17,23.65,23.65,0,0,1-8.7,1.36,27.81,27.81,0,0,0,1.31-3l.73-1.66q-.34.49-.69.9c-.4.6-.8,1.16-1.21,1.69h-.09a.29.29,0,0,1-.2-.08c1.33-2.62,2.7-5.2,4.1-7.76.16-.39.33-.75.49-1.07h.1a.39.39,0,0,0,.28.08c-1,2.08-1.94,4.2-2.87,6.34l2-3.54q2.61-4.53,5.43-9a16.74,16.74,0,0,1,1.15-1.73,4.07,4.07,0,0,1,1.3-1.18c3.16-1.6,6.33-3.12,9.52-4.53q1.83-.8,3.66-1.68l1.85-.69a10.52,10.52,0,0,0,4-2.17,12,12,0,0,1,4.68-3.35,2.23,2.23,0,0,0,.56-.14q1.85-.69,5.77-2.1c2.61-.93,5.06-1.94,7.35-3s3.6-1.94,3.94-2.59l-1.4.28-2.43.36-.05-.66a3.31,3.31,0,0,0,2.57-.46,15.22,15.22,0,0,0,2.19-1.76c.66-.55,1.31-1.07,2-1.55l-5.37.37a6.93,6.93,0,0,1,2-.9c0-.06,0-.09.09-.1l1.11-.27a8.75,8.75,0,0,0,1.16-.31,1.43,1.43,0,0,0,.77-.58,3.87,3.87,0,0,1,1.65-1.43,8.9,8.9,0,0,1,1.71-.5,8.58,8.58,0,0,0,1.58-.49,3.51,3.51,0,0,1,1.58-.3,2.83,2.83,0,0,0,.75-.14v-.19l.15-.58-1.21.27a15.83,15.83,0,0,1-3,.68,1.76,1.76,0,0,1-1.16-.3,2,2,0,0,1-.58-.24c.06,0,.09,0,.09-.1s.19-.36.25-.49c-1.49.42-3.62,1-6.41,1.77s-5.78,1.6-9,2.51c-2.78.76-5.48,1.49-8.07,2.17a8.16,8.16,0,0,0,.57-1.27l-2.25.35-1.68.3a.88.88,0,0,1,.07-.38l0-.28a3.15,3.15,0,0,0,2.47-.46,18.36,18.36,0,0,0,2.29-1.77,9.61,9.61,0,0,1,2-1.55c-1.13.08-2.26.12-3.4.14l-1.6.11a.24.24,0,0,0,.18-.11l.18-.2q.73-.33,1.38-.57l1-.26a11.13,11.13,0,0,0,1.21-.32,1.46,1.46,0,0,0,.81-.57,4,4,0,0,1,1.6-1.44,8.58,8.58,0,0,1,1.67-.49,8,8,0,0,0,1.67-.5,4.59,4.59,0,0,1,1.58-.39l.66,0a.38.38,0,0,0,.07-.29,1.52,1.52,0,0,0,.06-.48l-1.21.27a16.85,16.85,0,0,1-2.88.68,1.76,1.76,0,0,1-1.16-.3,2.42,2.42,0,0,0-.58-.25.26.26,0,0,0,.08-.19,1.43,1.43,0,0,1,.26-.4,14.61,14.61,0,0,1-1.68.4,136.09,136.09,0,0,1,17.58-16.54,30.78,30.78,0,0,1,8.83-4.91q4.8-1.69,7.58.18a2.36,2.36,0,0,0,1.42-1.32,3.4,3.4,0,0,0,.08-1.62l-.53-2.23q-.57-2.79-1.32-5.39c-.08-.19-.16-.4-.24-.65a1.63,1.63,0,0,0-.13-.56,13.84,13.84,0,0,0-.38-1.44,4.51,4.51,0,0,0-.65-1.23,42.07,42.07,0,0,0-3.15-5.79c-1.2-1.83-2.27-2.82-3.23-2.94l-.37,0a32.77,32.77,0,0,0-5.55.48,26.63,26.63,0,0,0-9,3.93,63.45,63.45,0,0,0-8.15,6.52q-8.9,8.19-17,17.25-8.84,10.46-17.06,21.33c-1.45,1.8-2.91,3.64-4.35,5.5a16.31,16.31,0,0,1-1.58,1.76,5,5,0,0,1-2,1.14,4.85,4.85,0,0,0-2.59,2.21A4.54,4.54,0,0,0,232,202a4.66,4.66,0,0,1,.08,1.27,2.85,2.85,0,0,1-.38,1.3q-1.75,3.34-3.6,6.68-3.28,5.91-6.18,11.78a22.27,22.27,0,0,0-2.33,8.11,7.38,7.38,0,0,0,2.66,6.34c.67.52,1.37,1,2.1,1.55a7.38,7.38,0,0,0,2.63,6.63,81.84,81.84,0,0,0,7.66,5.43c1,.69,2,1.34,3,2a3.07,3.07,0,0,0,1.17.48.74.74,0,0,1,.29.08,23.91,23.91,0,0,0,12.24-.85,5,5,0,0,0,1.71-1.16,12.76,12.76,0,0,1,1.16-1.12q20.21-7.26,39.33-23.24A1,1,0,0,0,293,227.38Z"/><path class="cls-1" d="M610.11,200.26c.31-.76.7-1.8,1.16-3.12a11.3,11.3,0,0,0-1.4,1.62,3.6,3.6,0,0,1-1.22,1.32c-.4.22-.81-.08-1.24-.88-.09-.08-.28-.07-.54,0l-.94.41q-.54.24-1.08.42c-.7.42-1.36.83-2,1.24-1.24.73-2.43,1.36-3.59,1.9q-2.43.72-4.87,1.31a51.82,51.82,0,0,0-5.28,1.46q-5.91,2.22-11.82,4.55l-9.67,3.7q-7.93,2.9-15.88,5.65-4.57,1.69-9.28,3.4c-4,1.47-7.93,2.94-12,4.41a.44.44,0,0,1,.27-.15.39.39,0,0,0,.26-.16,39.35,39.35,0,0,0,4.78-2.67l2.12-1.25-.07-1.1.58.51a1,1,0,0,0,.42.11v.14c.72-.33,1.34-.65,1.87-1s1.15-.63,1.86-1a13.88,13.88,0,0,0-1.52,0l-.25.29a.46.46,0,0,1-.12.29.86.86,0,0,0-.44-.38.41.41,0,0,0-.16-.27,3,3,0,0,0,1,.07,4.48,4.48,0,0,1,.5-.72l2-2.9a1.93,1.93,0,0,0,.45.52,7.19,7.19,0,0,0-.48,1c-.16.38-.32.8-.47,1.27a9.22,9.22,0,0,1,1.66,0l1.51-.11q5.24-4.08,9.94-7.72c-.06.46-.12.88-.18,1.25l.54,0a4.59,4.59,0,0,0,1.09-.22c.89-.52,1.77-1.08,2.64-1.7a7.12,7.12,0,0,0,1.05-.76,8.75,8.75,0,0,1,0,1.52c-.06.47-.11,1.06-.15,1.8l2.43-2.78c.1.26.22.51.32.73s.22.47.33.74a12.77,12.77,0,0,1,4.56-4.8c1.56-.8,2.74-.67,3.55.37l1.29-1.19a10.07,10.07,0,0,1,2.49-2c2.77-1.11,5.51-2.09,8.2-2.92a31.6,31.6,0,0,0,3.1-1.18,9.73,9.73,0,0,0,1.61-.52,15.74,15.74,0,0,0,1.7-.46c.49-.18.73-.31.73-.4a4.1,4.1,0,0,1,.56-1.76,1,1,0,0,1,.87-.48,6,6,0,0,1,.9.15,4.6,4.6,0,0,0,1.11.06c1-.16,2.05-.33,3.14-.49l2.59-.46a3.27,3.27,0,0,0-.73-.5,9.27,9.27,0,0,1-.87-.63l1.34-.64c.44-.22.93-.43,1.47-.66l-.08-1.09q-8.88,3.22-17.9,6.34a4.82,4.82,0,0,1-1.07.48.38.38,0,0,1,.12-.28l0-.27q4-2.2,8-4.28a1.88,1.88,0,0,1,.18-.36.1.1,0,0,1,.14,0,.28.28,0,0,0,.21.06l.27,0c3.42-1.07,6.84-2.17,10.25-3.33a25,25,0,0,0,2.42-.86,2.41,2.41,0,0,1,.09-.69v-.14a9.65,9.65,0,0,0-1.69-.44l.22-.84c.39-.94.9-2.22,1.52-3.83a11.47,11.47,0,0,0-1.4,1.62,5.09,5.09,0,0,1-1.29,1.33c-.35.21-.74,0-1.15-.75a.84.84,0,0,0-.62,0,5.07,5.07,0,0,0-1,.35,4.57,4.57,0,0,0-.93.55,11.64,11.64,0,0,0-2.12,1.25,19.48,19.48,0,0,1-3.47,1.75,43.41,43.41,0,0,1-4.86,1.44c-1.81.41-3.62.9-5.41,1.48q-5.93,2.2-11.82,4.54l-9.68,3.71c-.72.23-1.39.46-2,.69-.36.12-.67.23-.94.34l1.15-1.32a14.35,14.35,0,0,0-1.7-.71,10,10,0,0,0,6.4-3.2,30.22,30.22,0,0,1,4.46-3.21,35.93,35.93,0,0,0,3.81-2.74q11.34-9.48,22.38-19.34,7.53-6.72,14.77-13.71,6-6.21,3.77-11.29c-.54-1.07-1.12-2.13-1.74-3.19a35.58,35.58,0,0,1-2.68-4.92,9.53,9.53,0,0,0-2-3c-.11-.27-.22-.58-.34-.94-.62-1.06-1.24-2.08-1.86-3a34,34,0,0,1-2.7-5.06,7.19,7.19,0,0,0-4.08-4.27,15.21,15.21,0,0,0-6.47-.79,157.53,157.53,0,0,0-35.39,6.73q-3.52.93-6.9,1.85-4.6,1.29-9.19,2.71a76.13,76.13,0,0,1-9.57,2.9,7.08,7.08,0,0,0-.45-1.37c-.54-1.07-1.11-2.13-1.74-3.19a35.58,35.58,0,0,1-2.68-4.92,9.64,9.64,0,0,0-2-3c-.11-.27-.22-.58-.34-.94-.62-1.06-1.24-2.07-1.86-3a33.46,33.46,0,0,1-2.7-5.06A7.17,7.17,0,0,0,514,111a15.2,15.2,0,0,0-6.47-.8,157.53,157.53,0,0,0-35.39,6.73q-3.53.93-6.9,1.86c-3.07.85-6.13,1.76-9.19,2.7a69.32,69.32,0,0,1-23,4.63,5.22,5.22,0,0,0-2.08.76,4,4,0,0,0-1.63,1.42,3.8,3.8,0,0,0-.33,2.17,5.15,5.15,0,0,0,.62,2,1.65,1.65,0,0,1,.3.39c.63,1.06,1.48,2.45,2.57,4.17s2.19,3.5,3.33,5.35a4.51,4.51,0,0,0,.56,2c.81,1.14,1.67,2.23,2.57,3.27,0,.1.05.14.14.13.44,1,.89,1.55,1.36,1.7.61.88,1.18,1.76,1.7,2.64q2.21,4,6.07,4a25.08,25.08,0,0,0,8.3-1.54q6.36-1.81,12.71-3.77L476,148.6l-1.17,1.05q-13.14,11.25-26.74,22Q423,191.16,397.54,210q-6.18,4.51-12.4,8.91l-1.62-.57q-11.07-4.34-22.33-8.47-5.82-2.16-11.74-4.2a1.51,1.51,0,0,0,.73-.43,16,16,0,0,1,4.56-3.77,40.28,40.28,0,0,1,5-2.19c.24-.08.52-.16.83-.24-.07.76-.11,1.17-.1,1.23q2.1-1.08,4.2-2.09,2.83-1.43,5.68-2.75a2.05,2.05,0,0,1,0-.67c-.37,0-.77,0-1.18,0s-1,0-1.65.06q4.1-2.35,7.55-4.4l1.82-1.07a1.9,1.9,0,0,1,.13.56l-1.44,1c-.3.21-.63.43-1,.64a8.31,8.31,0,0,0,4.35-1.34q5.71-3.51,11.12-7.48,5.93-4.49,11.64-9.42a99.08,99.08,0,0,0,14.43-15.56q6.58-8.69,6.11-17a57.52,57.52,0,0,0-1.25-7.72,20,20,0,0,0-3-6.84,10.17,10.17,0,0,0-1.94-2,16.78,16.78,0,0,0-2.79-6.14q-4.48-5.94-13-5.44a3.84,3.84,0,0,1,.78.23,7.32,7.32,0,0,0,1.25.39,57.77,57.77,0,0,0-9.13,0,25.28,25.28,0,0,0-7.14,1.25.75.75,0,0,1,.38.07l.66-.05a.14.14,0,0,1,.14.08.16.16,0,0,0,.15.09.3.3,0,0,0,.11.18,8.29,8.29,0,0,0-3.93-.11,37.21,37.21,0,0,0-4.13,1.14,35.13,35.13,0,0,1-3.53,1c.5-.16,1-.35,1.57-.58l1.39-.47a1.58,1.58,0,0,1,.05-.57c-1.17.33-2.35.69-3.52,1.09-2.78.76-5.59,1.68-8.41,2.76a5.58,5.58,0,0,1-2.19.53c-.53,0-.89-.41-1.07-1.16-.9.63-1.74,1.26-2.52,1.88a40.48,40.48,0,0,1-5.32,3.68,146.21,146.21,0,0,0-20.83,13.36,18.08,18.08,0,0,0-5.2,6.79,22.68,22.68,0,0,1-3.07,4.84.64.64,0,0,0-.12.34,2.16,2.16,0,0,0,0,.43,4.32,4.32,0,0,1,.16.93,30.23,30.23,0,0,0,.42,3.29q.45,3.84,1.86,4.31c.93.31,2.77-.29,5.5-1.8a.35.35,0,0,1,.18-.11h.1a2.9,2.9,0,0,0,1.21-.94,1.31,1.31,0,0,0-.14-1.31,2.2,2.2,0,0,1,0-1.42,1.17,1.17,0,0,1,.38-.59c1.71-1.69,3.46-3.3,5.25-4.81.59-.54,1.15-1.09,1.68-1.63l.41.35c-.28.59-.53,1.14-.74,1.66a16.43,16.43,0,0,1-2,3.55,93.75,93.75,0,0,0-8.08,13.13c-.72,1.38-1.48,2.72-2.27,4-1.41,2.49-2.74,5-4,7.65-.83,1.64-1.7,3.24-2.6,4.82-.67,1.24-1.34,2.45-2,3.63-1,1.78-2,3.51-2.85,5.21q-4.16,8.34-11.24,9.86a83.4,83.4,0,0,0-10,3.53,4.11,4.11,0,0,0-1.91,1.65,1.74,1.74,0,0,0,.28,2.06l.63.9q1.26,1.8,2.61,3.5c.41.48.82,1,1.24,1.53a2,2,0,0,0,.16,2.35,9.51,9.51,0,0,1,.62.81c.56.72,1.11,1.47,1.67,2.25l-2.85,5.3q-4.53,8.27-8.57,16.77-3.79,8.21-6.9,16.55L283,261.18a3.89,3.89,0,0,0,.08,2.54,5.46,5.46,0,0,0,1.48,2.22,2.84,2.84,0,0,0,2.14.84,1.49,1.49,0,0,0,.55-.22,1,1,0,0,0,.44-.41,4.47,4.47,0,0,1,.43-.6q1.61-2.85,3-5.79c.55-1.17,1.06-2.38,1.55-3.6a52.54,52.54,0,0,1,2.55-5.48,14.2,14.2,0,0,1,.92-1.67q-3.69,8-6.73,16.16c-.59,1.43-1.15,2.86-1.69,4.28a3.78,3.78,0,0,0,.08,2.5,5.21,5.21,0,0,0,1.48,2.22,3.27,3.27,0,0,0,2.05.9c.18-.08.38-.17.59-.28a1.09,1.09,0,0,0,.49-.46l.34-.59q1.69-2.87,3.1-5.7c.55-1.24,1.06-2.44,1.55-3.61a50.29,50.29,0,0,1,2.45-5.56c.4-.66.79-1.34,1.18-2.06a55.87,55.87,0,0,1,4.51-7.31,26.91,26.91,0,0,0,3.16-6.18l1.33-2.74c.55-1.17,1.1-2.32,1.65-3.43.17-.32.33-.68.5-1.07h.09l.39.16a5,5,0,0,1-.42.79,13.11,13.11,0,0,1-.57,1.36h.1a.36.36,0,0,0,.29.07q3.3-5.52,5.84-9.86c-.15-.37-.3-.7-.45-1a2.57,2.57,0,0,1-.28-1.3,2.7,2.7,0,0,1,.57-1.27,3.82,3.82,0,0,0,.44-.6,4.47,4.47,0,0,0,.48.16c-.17.26-.31.49-.43.69-.16.39-.32.74-.49,1.07l.76-.05.95.12a5,5,0,0,0,.42-.78c.33-.66.67-1.28,1-1.87a7.29,7.29,0,0,1,2.11-3,4.45,4.45,0,0,1,3.14-.36,16,16,0,0,0,1.7,0l.85-.06v-.1a.09.09,0,0,1,.09-.1l-3.24-.34-1,0,.16-.39a3.53,3.53,0,0,1,.16-.49q9.63-.18,18.8-.26l-.91.44a3.93,3.93,0,0,1-.46.23.71.71,0,0,1-.08.28.89.89,0,0,1-.06.39l2-.14c1.51-.1,3-.14,4.34-.11a11.71,11.71,0,0,1,3.38,1c.45.16.88.32,1.27.48l.39.17a1.42,1.42,0,0,0,.39.25l4.06,1.23q4.05,1.14,8,2.48c2.23.75,4.45,1.55,6.64,2.4l-1.47,1q-5.52,3.82-10.91,7.65t-1.36,6.3a5.69,5.69,0,0,1,1.89,2.35,27.84,27.84,0,0,1,1.58,3.89c.55,1.34,1.1,2.59,1.64,3.75a2.67,2.67,0,0,0,1.66,2.09.45.45,0,0,0,.28.12,31,31,0,0,0,3,1.31q2.56,1.2,4.87,2.55a15.27,15.27,0,0,0,4.34,2.05,9.83,9.83,0,0,0,5.43-.24,30.29,30.29,0,0,0,11.33-5.75,40.69,40.69,0,0,1,7.56-4.25,35.45,35.45,0,0,0,7.57-4.24,44.21,44.21,0,0,1,11.59-5.91c1.43-.56,2.82-1.11,4.15-1.66q5.1-2.15,10.06-4.15l4.3-1.67q2.15-.84,4.42-1.83,5-1.86,9.93-4a30.49,30.49,0,0,0,4.78-2.67c.79-.51,1.54-1,2.24-1.4l-.06-1a1.69,1.69,0,0,1,.5.31l.37.32.15.13,1.85-1.09c.53-.32,1.11-.63,1.73-1a6,6,0,0,1-1.38,0,1.81,1.81,0,0,1-.25.43l-.13.14a1.53,1.53,0,0,1-.43-.24l-.29-.26,1.1-.07c.33-.49.71-1,1.13-1.6s.83-1.21,1.25-1.88l.44.39-.95,2.27a10.24,10.24,0,0,0,1.66,0,7.25,7.25,0,0,1,1.52,0l9.93-7.86a7.2,7.2,0,0,0,0,1.39l.41,0a2.72,2.72,0,0,0,1.22-.36c.88-.52,1.76-1.09,2.64-1.7l1.06-.63c-.06.47-.12,1-.17,1.53a11.93,11.93,0,0,1,0,1.66l.51-.59c.76-1,1.36-1.7,1.78-2.19l.34.8a5.06,5.06,0,0,1,.33.81c1.48-2.49,3-4.12,4.55-4.87s2.79-.65,3.68.3l1.3-1.19a7.79,7.79,0,0,1,2.48-2c2.69-1,5.42-2,8.21-2.91l.25-.09q-13.56,10.3-27.19,20.42-13.12,9.6-26.43,18.65-5.52,3.84-10.91,7.66t-1.36,6.3a5.7,5.7,0,0,1,1.89,2.35,27.84,27.84,0,0,1,1.58,3.89c.55,1.34,1.1,2.59,1.64,3.74a2.67,2.67,0,0,0,1.66,2.1.39.39,0,0,0,.28.11,26,26,0,0,0,3,1.31q2.57,1.21,4.87,2.56a15.14,15.14,0,0,0,4.34,2.05,9.83,9.83,0,0,0,5.43-.24,30.29,30.29,0,0,0,11.33-5.75,40.69,40.69,0,0,1,7.56-4.25,35.51,35.51,0,0,0,7.57-4.25,44.48,44.48,0,0,1,11.59-5.9c1.43-.56,2.82-1.11,4.15-1.67q5.1-2.15,10.06-4.14l4.3-1.68q2.14-.83,4.42-1.82,5-1.86,9.93-4a31.32,31.32,0,0,0,4.78-2.67c.79-.52,1.54-1,2.24-1.4l-.06-1a1.69,1.69,0,0,1,.5.31l.37.32.15.13,1.85-1.1c.53-.31,1.11-.63,1.73-.94a5.94,5.94,0,0,1-1.38-.05,1.62,1.62,0,0,1-.25.43l-.13.15a1.82,1.82,0,0,1-.43-.24l-.29-.26,1.1-.08c.33-.48.71-1,1.13-1.59s.83-1.21,1.25-1.88l.44.38-.95,2.27a9.22,9.22,0,0,0,1.66,0,6.63,6.63,0,0,1,1.52,0l9.93-7.86a7.12,7.12,0,0,0,0,1.38l.41,0a2.71,2.71,0,0,0,1.22-.35c.88-.52,1.76-1.09,2.64-1.7l1.06-.63c-.06.47-.12,1-.17,1.53a11.93,11.93,0,0,1,0,1.66l.51-.59c.76-1,1.36-1.7,1.78-2.19l.33.8a4.18,4.18,0,0,1,.34.81q2.22-3.75,4.55-4.87t3.68.3l1.29-1.2a7.89,7.89,0,0,1,2.49-2c2.69-1,5.42-2,8.21-2.91,1-.35,2-.7,3.1-1.05A7.53,7.53,0,0,1,596,213l1.61-.6a6.5,6.5,0,0,1,.81-.26,3.24,3.24,0,0,1,.43-1.75,1.17,1.17,0,0,1,.86-.54,4.19,4.19,0,0,1,1,.06,3.78,3.78,0,0,0,1,.07l3.68-.53a17.45,17.45,0,0,1,2.19-.29l-.73-.64a2.33,2.33,0,0,1-.5-.24A1.83,1.83,0,0,1,606,208l1.33-.78,1.33-.64-.06-1q-9.43,3.27-18.85,6.68l0-.55q4-2.07,8-4.28l.2-.22a.34.34,0,0,1,.2-.08h.13a.38.38,0,0,0,.29.12l10.24-3.47,2.43-.72a2.63,2.63,0,0,0,.08-.83h.14a17.23,17.23,0,0,1-1.7-.57ZM401.77,115.92l-21,1.45Q392.6,114.48,401.77,115.92Zm-35.72,5.17a2.32,2.32,0,0,1,1.24-.65c.55-.14,1.42-.31,2.61-.52l.47,0a32.57,32.57,0,0,0,4-1.13c.61-.23,1.23-.43,1.85-.6a1,1,0,0,0-.07.48v.09c-1.73.56-3.48,1.16-5.27,1.79s-3.72,1.36-5.63,2A5.52,5.52,0,0,1,366.05,121.09Zm-20.94,61.55a3.58,3.58,0,0,1,.42-.88A302.74,302.74,0,0,1,361,155.25q3.17-4.67,5.87-9.39a12.31,12.31,0,0,1,7.45-5.82,69.67,69.67,0,0,1,23.77-4.95,48.76,48.76,0,0,1,9.24,1,89.25,89.25,0,0,1-16.16,17.85,191.13,191.13,0,0,1-35.28,23.25ZM515,196.76l-8.66,3.11,0-.55q4-2.07,8-4.27l.19-.22a.29.29,0,0,1,.2-.09h.14a.35.35,0,0,0,.28.12l4.33-1.47C517.94,194.52,516.47,195.64,515,196.76Zm11.8-9.08c.3-.74.67-1.72,1.1-3a10.71,10.71,0,0,0-1.4,1.61,3.64,3.64,0,0,1-1.22,1.33c-.4.21-.81-.09-1.24-.88-.09-.09-.28-.08-.54,0l-.94.41a8,8,0,0,1-1.08.42c-.7.42-1.36.83-2,1.24-1.24.73-2.43,1.37-3.59,1.91q-2.43.72-4.87,1.3a50,50,0,0,0-5.28,1.47q-5.91,2.2-11.82,4.54l-9.67,3.7q-7.93,2.9-15.88,5.65-4.58,1.69-9.28,3.4c-4,1.47-7.93,2.94-12,4.42a.43.43,0,0,1,.27-.16.36.36,0,0,0,.26-.16,38.61,38.61,0,0,0,4.78-2.67l2.12-1.25-.07-1.1.58.51a1,1,0,0,0,.42.11v.14c.72-.33,1.34-.65,1.87-1a19.87,19.87,0,0,1,1.86-1,12.08,12.08,0,0,0-1.52,0l-.25.3a.45.45,0,0,1-.12.28,1,1,0,0,0-.44-.38.43.43,0,0,0-.16-.27,2.74,2.74,0,0,0,1,.07,5.6,5.6,0,0,1,.5-.72l2-2.9a1.93,1.93,0,0,0,.45.52,7.19,7.19,0,0,0-.48,1c-.16.38-.32.81-.47,1.27a11.53,11.53,0,0,1,1.66,0l1.51-.11,9.94-7.72q-.09.7-.18,1.26l.54,0a4.59,4.59,0,0,0,1.09-.22c.89-.52,1.77-1.08,2.64-1.69a7.21,7.21,0,0,0,1.05-.77,8.73,8.73,0,0,1,0,1.52c-.06.47-.11,1.07-.15,1.81l2.43-2.79.32.73c.11.23.22.47.33.74a12.77,12.77,0,0,1,4.56-4.8q2.34-1.2,3.55.38l1.29-1.2a10.32,10.32,0,0,1,2.49-2q4.15-1.67,8.21-2.91c1.07-.36,2.1-.75,3.09-1.18a10.82,10.82,0,0,0,1.61-.53,13.73,13.73,0,0,0,1.7-.46c.49-.17.73-.31.73-.4a4.1,4.1,0,0,1,.56-1.76,1,1,0,0,1,.87-.47,5,5,0,0,1,.9.14,4.17,4.17,0,0,0,1.11.06l3.14-.49,2.59-.46a3.27,3.27,0,0,0-.73-.5,7.74,7.74,0,0,1-.87-.63l1.34-.64c.44-.21.93-.43,1.47-.65l-.08-1.1q-8.88,3.22-17.9,6.34a5.38,5.38,0,0,1-1.07.49.42.42,0,0,1,.12-.29l0-.27q4-2.2,8-4.28a2,2,0,0,1,.18-.35.09.09,0,0,1,.14,0,.28.28,0,0,0,.21,0l.27,0q5.13-1.59,10.25-3.33a22.55,22.55,0,0,0,2.42-.86,2.41,2.41,0,0,1,.09-.69v-.14a8.71,8.71,0,0,0-1.69-.43l.22-.84c.39-.95.9-2.23,1.53-3.83a11,11,0,0,0-1.41,1.61,4.94,4.94,0,0,1-1.29,1.33c-.35.21-.74,0-1.15-.75a.8.8,0,0,0-.62,0,5,5,0,0,0-1,.34,5.07,5.07,0,0,0-.93.55A12.25,12.25,0,0,0,512.6,177a20.52,20.52,0,0,1-3.46,1.76,49,49,0,0,1-4.87,1.44c-1.81.4-3.62.89-5.41,1.47q-5.92,2.2-11.82,4.55l-9.68,3.7c-.72.24-1.39.46-2,.69-.36.12-.67.23-.94.34l1.15-1.32a14.35,14.35,0,0,0-1.7-.71,10,10,0,0,0,6.4-3.2,29.45,29.45,0,0,1,4.46-3.2,37.51,37.51,0,0,0,3.81-2.75q11.34-9.48,22.38-19.34,3.84-3.42,7.59-6.92c.26.41.51.81.76,1.23a4.55,4.55,0,0,0,.56,2c.81,1.14,1.67,2.23,2.57,3.27a.12.12,0,0,0,.14.13c.44,1,.89,1.55,1.36,1.7.61.87,1.18,1.76,1.7,2.64q2.2,4,6.07,4a25.08,25.08,0,0,0,8.3-1.54q6.36-1.81,12.71-3.78L559.4,161l-1.17,1q-13.14,11.25-26.74,22C529.93,185.27,528.36,186.47,526.79,187.68Z"/></g></g></svg>