<?xml version="1.0" standalone="no"?>
<!DOCTYPE svg PUBLIC "-//W3C//DTD SVG 20010904//EN"
 "http://www.w3.org/TR/2001/REC-SVG-20010904/DTD/svg10.dtd">
<svg version="1.0" xmlns="http://www.w3.org/2000/svg"
 width="1168.000000pt" height="1168.000000pt" viewBox="0 0 1168.000000 1168.000000"
 preserveAspectRatio="xMidYMid meet">
<metadata>
Created by potrace 1.11, written by Peter Selinger 2001-2013
</metadata>
<g transform="translate(0.000000,1168.000000) scale(0.100000,-0.100000)"
fill="#000000" stroke="none">
<path d="M6377 8380 c-26 -5 -66 -18 -90 -29 -74 -35 -93 -41 -106 -28 -6 6
-11 19 -11 28 0 32 -19 31 -122 -6 -57 -20 -169 -59 -249 -86 -80 -27 -216
-75 -302 -108 l-156 -59 -7 46 -7 46 -33 -38 c-38 -44 -93 -154 -120 -239 -20
-66 -30 -60 -33 21 -1 31 -3 58 -5 59 -2 2 -15 -19 -30 -47 -31 -57 -46 -57
-46 -1 0 23 -8 48 -20 64 -17 21 -50 155 -50 201 0 5 -2 7 -6 4 -3 -3 -6 -102
-7 -219 -2 -197 -4 -218 -24 -259 l-21 -45 -3 50 c-4 105 2 175 19 209 l14 29
-40 -7 -41 -6 0 63 c0 68 -9 117 -21 117 -4 0 -13 -6 -19 -14 -12 -14 -15 -82
-26 -526 l-5 -215 -82 -273 c-80 -264 -84 -274 -113 -287 -63 -26 -144 4 -285
108 l-85 62 63 14 c62 15 74 27 53 60 -6 9 -11 10 -15 2 -10 -16 -52 -13 -66
4 -29 35 -6 197 66 475 19 74 37 145 40 158 3 13 27 97 54 188 28 91 50 168
50 172 0 4 -12 -8 -26 -26 -21 -26 -29 -30 -40 -21 -8 7 -17 9 -20 7 -4 -5
-52 -209 -68 -288 -11 -59 -78 -370 -91 -427 -8 -34 -15 -71 -15 -82 0 -11 -5
-23 -12 -27 -6 -4 -9 -3 -6 2 3 5 9 43 13 84 4 41 8 82 10 90 2 8 6 44 10 80
3 36 8 76 10 90 2 14 6 54 10 90 10 100 16 129 40 195 l7 20 -14 -20 c-9 -11
-30 -47 -47 -80 l-32 -60 2 65 c2 68 8 81 77 160 17 19 29 36 27 38 -2 2 -24
-10 -49 -27 -24 -17 -47 -31 -50 -31 -2 0 -8 15 -12 33 l-7 32 -8 -30 c-5 -16
-10 -41 -13 -55 -2 -14 -25 -110 -50 -215 -26 -104 -54 -223 -64 -262 -9 -40
-21 -73 -25 -73 -5 0 -6 3 -4 8 3 4 8 45 12 92 4 47 9 99 10 115 16 166 24
348 16 340 -3 -3 -6 -12 -7 -20 -1 -7 -5 -31 -8 -52 -3 -21 -10 -63 -15 -93
-6 -30 -13 -75 -16 -100 -3 -25 -10 -67 -15 -95 -5 -27 -12 -68 -15 -90 -5
-34 -13 -85 -40 -241 -2 -12 -7 -48 -11 -80 -4 -33 -9 -61 -9 -64 -1 -3 -5
-27 -10 -54 l-8 -49 -133 -64 c-146 -69 -308 -128 -325 -117 -17 10 -8 100 36
364 36 216 98 493 156 695 33 115 32 115 -31 -9 -33 -65 -60 -114 -60 -109 0
8 27 101 91 308 14 45 11 44 -23 -10 -50 -79 -78 -148 -124 -303 -24 -80 -47
-148 -50 -151 -4 -3 -4 3 -1 14 3 11 9 48 12 82 3 34 7 70 9 80 2 10 7 44 11
76 3 32 15 84 26 114 10 31 19 64 19 74 0 22 -54 43 -68 26 -6 -7 -24 -70 -40
-142 -17 -71 -50 -206 -72 -300 -80 -329 -140 -590 -140 -607 0 -27 -18 -31
-42 -8 -13 12 -78 60 -144 107 l-122 86 32 26 c46 38 156 150 196 200 31 39
106 157 190 297 16 29 28 58 25 65 -7 19 -127 100 -190 128 -91 42 -231 72
-337 72 -54 0 -105 -2 -115 -5 -10 -2 -36 -7 -58 -11 -40 -6 -283 -84 -340
-109 -16 -7 -83 -35 -148 -61 l-117 -48 1 -81 c0 -45 8 -135 18 -201 17 -112
22 -334 8 -390 -3 -11 -8 -49 -12 -85 -3 -36 -8 -72 -10 -80 -2 -8 -6 -42 -10
-75 -3 -33 -7 -71 -10 -85 -2 -14 -7 -52 -10 -85 -4 -33 -13 -87 -20 -120 -8
-33 -17 -78 -21 -100 -3 -22 -8 -43 -10 -46 -5 -9 -6 -191 0 -214 2 -11 5 -23
5 -27 1 -5 13 -8 29 -8 39 0 73 -11 67 -21 -3 -4 3 -26 15 -48 11 -22 20 -45
20 -50 0 -5 -29 -9 -65 -9 -55 1 -75 -4 -142 -37 -70 -34 -99 -59 -274 -234
-123 -123 -230 -241 -287 -316 -50 -66 -105 -133 -122 -150 -37 -34 -267 -415
-315 -520 -107 -232 -158 -388 -173 -527 -10 -91 4 -155 46 -207 16 -20 35
-53 41 -74 21 -63 62 -99 171 -151 141 -68 168 -65 293 33 75 58 122 104 216
211 41 47 80 90 86 95 6 6 36 42 67 80 164 207 276 400 397 684 34 79 68 149
75 155 25 20 99 236 99 287 0 49 -26 113 -88 214 -37 61 -58 106 -51 113 16
15 108 30 138 21 18 -5 44 -9 57 -9 20 0 23 4 18 28 -6 28 -5 29 61 42 37 7
69 13 72 13 3 -1 13 3 22 8 13 7 17 4 20 -19 4 -39 32 -39 179 -2 68 18 131
33 139 35 8 2 52 13 98 26 45 12 84 20 87 17 3 -2 -30 -69 -73 -149 -145 -267
-175 -323 -300 -569 -68 -135 -146 -285 -172 -335 -256 -485 -391 -778 -454
-987 -41 -134 -46 -156 -51 -217 -5 -52 5 -74 45 -98 24 -14 30 -24 30 -53 0
-42 20 -75 59 -95 26 -13 30 -13 44 3 8 9 17 33 21 52 3 19 18 60 32 90 14 30
26 75 27 100 2 31 11 56 28 80 15 19 36 64 48 100 11 36 37 88 56 115 19 28
43 63 52 78 10 16 36 56 57 90 22 33 54 94 73 134 18 40 51 98 73 130 22 31
40 60 40 65 0 11 42 102 51 108 3 3 19 31 33 63 15 31 32 55 37 52 5 -4 9 4 9
17 0 13 13 43 29 67 16 24 37 61 47 82 12 29 22 38 34 34 12 -4 24 10 48 58
18 35 32 73 32 85 0 13 7 25 15 28 8 4 41 59 72 123 32 64 79 157 106 206 27
50 68 126 92 170 23 44 68 125 100 180 32 55 70 120 84 145 54 94 47 88 70 64
17 -19 28 -21 73 -17 29 2 80 11 112 19 60 16 75 11 76 -22 0 -26 38 -20 260
37 251 64 258 65 242 47 -5 -7 -29 -49 -52 -93 -24 -44 -73 -136 -110 -205
-80 -149 -172 -326 -345 -665 -70 -137 -146 -284 -168 -325 -168 -314 -328
-690 -351 -823 -3 -16 -10 -43 -15 -60 -15 -45 -20 -108 -10 -134 4 -11 21
-29 37 -39 24 -14 31 -25 35 -62 10 -86 101 -126 119 -52 5 19 22 69 39 110
16 42 28 87 26 100 -5 27 6 53 32 82 9 9 27 49 39 87 13 39 42 98 65 131 23
34 47 69 52 78 6 9 27 43 49 76 21 32 54 93 74 134 19 42 49 97 66 122 17 25
42 70 56 100 14 30 29 58 34 61 14 11 -3 29 -20 22 -14 -5 -14 -3 -3 16 16 24
31 29 23 6 -4 -8 -1 -15 5 -15 6 0 22 25 37 56 14 30 32 58 40 61 8 3 11 9 8
15 -3 5 12 39 34 76 23 37 46 79 53 94 10 24 14 25 23 12 9 -12 18 -1 48 60
21 42 35 82 32 90 -3 8 3 19 14 25 11 6 43 59 72 118 28 60 82 164 119 233 38
69 88 161 111 205 24 44 57 103 73 130 81 136 177 308 177 315 0 7 130 42 210
57 14 2 48 11 75 19 28 9 60 17 73 20 13 3 123 29 245 60 237 59 323 79 375
89 46 9 40 25 -10 26 l-43 1 40 9 c91 20 90 20 74 30 -11 7 -9 9 8 9 12 0 25
5 28 10 3 6 -1 10 -9 10 -9 0 -16 5 -16 11 0 6 -8 8 -17 5 -10 -3 -36 -8 -58
-11 -34 -5 -37 -4 -20 6 11 7 21 13 22 14 2 1 -1 16 -6 33 -5 18 -6 32 -2 32
4 0 16 7 27 16 18 14 18 15 -4 4 -13 -7 -26 -9 -29 -6 -10 9 58 33 112 40 85
11 215 63 215 87 0 5 -4 8 -8 5 -4 -2 -44 -6 -87 -7 -44 -1 -89 -5 -100 -9
-11 -4 -38 -10 -60 -13 -22 -4 -62 -10 -88 -15 -45 -9 -49 -8 -57 12 -5 15 -3
23 9 28 9 5 -5 7 -31 5 -97 -5 -36 19 97 38 22 3 53 8 69 11 40 7 148 53 166
71 13 13 8 14 -52 11 -38 -2 -68 -1 -68 3 0 3 32 21 71 38 56 25 83 31 123 29
62 -3 75 4 69 36 -5 22 -1 26 31 32 26 4 42 2 54 -8 24 -21 49 -12 60 22 10
27 8 29 -20 39 -17 6 -43 11 -57 11 -65 0 -249 -69 -479 -181 -79 -38 -162
-72 -185 -75 -41 -5 -41 -5 33 36 160 88 470 239 521 254 44 14 55 14 68 2 26
-22 83 9 114 63 l19 32 -49 -7 c-69 -9 -73 -10 -122 -32 -44 -20 -45 -20 -72
-1 l-27 19 -238 -89 c-367 -136 -464 -171 -481 -171 -15 0 -15 16 2 140 2 14
7 53 10 87 12 114 16 123 69 161 86 62 171 100 500 223 131 49 242 92 248 95
5 3 4 12 -4 21 -8 10 -23 13 -48 9 -32 -5 -151 -48 -225 -81 -85 -38 -317
-126 -321 -123 -4 5 159 88 241 124 22 9 109 43 195 75 152 56 154 58 125 70
-40 17 -41 19 -28 27 6 4 14 19 18 34 7 26 5 27 -37 30 -45 3 -123 -25 -493
-182 l-160 -68 -5 51 c-5 49 4 212 14 274 2 15 5 32 5 36 3 24 413 203 655
286 133 46 212 86 271 136 l40 34 -40 -5 c-129 -15 -300 -75 -596 -209 -129
-58 -242 -110 -251 -115 -25 -14 -50 -12 -46 3 3 11 276 152 423 219 204 92
314 129 402 132 75 3 101 16 222 108 l24 18 -24 -1 c-13 -1 -45 -5 -72 -9z
m-382 -129 c-124 -47 -256 -107 -380 -171 -53 -27 -112 -52 -133 -55 l-37 -6
51 48 c58 55 102 80 235 133 97 39 182 64 254 76 22 3 41 7 42 8 1 1 17 3 35
4 23 1 2 -10 -67 -37z m-655 -215 c0 -16 -44 -116 -51 -116 -12 0 -12 1 12 64
12 31 26 56 30 56 5 0 9 -2 9 -4z m-2290 -182 l85 -29 -44 -3 c-33 -3 -44 -8
-48 -23 -3 -11 -11 -18 -17 -15 -76 34 -161 66 -206 77 -50 13 -52 14 -25 20
64 13 170 1 255 -27z m-421 -38 c-10 -8 -99 -12 -99 -5 0 15 93 30 99 16 1 -5
1 -10 0 -11z m256 -64 c23 -7 11 -9 -56 -10 -78 -1 -198 -9 -239 -17 -8 -2
-49 -6 -90 -10 -41 -4 -96 -10 -123 -15 -78 -12 -44 3 86 37 115 31 129 32
257 28 74 -2 149 -8 165 -13z m255 8 c9 0 10 -3 5 -9 -12 -12 -95 -2 -95 11 0
5 17 7 38 4 20 -3 44 -5 52 -6z m2087 -57 c-3 -5 -8 -38 -11 -75 -4 -37 -9
-77 -11 -90 -6 -38 -14 -109 -20 -173 -4 -33 -8 -67 -10 -75 -2 -8 -7 -42 -11
-75 -4 -33 -8 -69 -10 -80 -1 -11 -3 -23 -3 -27 -1 -5 -6 -8 -12 -8 -10 0 -8
43 6 134 2 11 6 41 9 66 3 25 10 81 16 125 6 44 13 106 16 138 3 32 7 66 9 75
2 9 4 29 4 45 1 17 6 27 17 27 8 0 13 -3 11 -7z m-2229 -42 c23 -6 42 -15 42
-20 0 -15 -77 -127 -125 -179 -92 -101 -281 -248 -496 -384 l-55 -35 0 136
c-1 131 -8 286 -20 394 l-6 52 84 20 c45 10 103 22 128 25 73 11 401 4 448 -9z
m2297 -3 c-2 -7 -6 -58 -9 -113 -4 -55 -8 -109 -10 -120 -3 -11 -5 -34 -5 -52
-1 -25 -6 -33 -32 -42 -24 -8 -30 -8 -27 2 3 6 20 85 39 175 19 89 37 162 41
162 4 0 6 -6 3 -12z m-2065 -28 c-24 -15 -37 -11 -16 5 11 8 22 12 25 9 3 -3
-1 -9 -9 -14z m1822 -112 c1 -93 -31 -217 -82 -318 -54 -106 -61 -103 -31 15
36 140 59 238 80 349 18 88 31 69 33 -46z m-1993 3 c-41 -38 -76 -67 -79 -64
-7 7 129 133 143 133 6 0 -23 -31 -64 -69z m2829 45 c1 -2 -40 -22 -90 -46
-78 -36 -420 -201 -453 -218 -5 -3 -1 4 10 14 53 51 139 102 290 173 91 43
167 80 171 83 5 5 65 0 72 -6z m-2738 -41 c0 -3 -7 -17 -16 -30 -23 -36 -39
-31 -17 5 15 27 33 40 33 25z m-995 -127 c20 -136 18 -221 -6 -336 -24 -117
-35 -145 -32 -79 7 161 12 317 14 405 0 57 4 101 7 98 2 -3 10 -43 17 -88z
m1990 35 c-6 -52 -19 -85 -28 -72 -2 2 1 32 6 67 11 80 32 85 22 5z m-1838 30
c-3 -5 -8 -71 -12 -148 -4 -77 -8 -158 -10 -180 -2 -22 -3 -61 -4 -87 -1 -34
-5 -48 -15 -48 -11 0 -14 12 -11 53 2 28 7 113 11 187 4 74 8 149 9 165 2 17
3 38 4 48 0 9 8 17 17 17 8 0 13 -3 11 -7z m676 -43 c-13 -12 -456 -344 -471
-353 -7 -5 -16 -6 -20 -2 -4 3 -1 9 5 13 6 4 25 18 43 32 193 149 437 326 443
323 5 -3 5 -9 0 -13z m1949 -38 c-11 -27 -24 -72 -85 -281 -19 -63 -40 -117
-47 -119 -9 -3 -11 1 -6 14 4 11 35 111 68 224 33 113 63 210 66 215 11 18 14
-26 4 -53z m-1853 -26 c-2 -1 -62 -49 -132 -105 -70 -56 -133 -101 -138 -99
-6 2 51 54 127 115 77 61 141 106 143 101 1 -5 1 -10 0 -12z m311 12 c0 -7 -4
-40 -10 -73 -5 -33 -11 -80 -14 -105 -3 -25 -7 -54 -10 -65 -6 -31 -15 -95
-22 -150 -3 -27 -7 -57 -9 -65 -2 -8 -7 -40 -11 -70 -4 -30 -8 -64 -10 -75 -1
-11 -3 -30 -3 -42 -1 -13 -5 -23 -9 -23 -9 0 -8 119 1 165 4 17 9 50 12 75 4
25 8 56 10 70 17 105 31 201 40 260 12 85 18 110 26 110 5 0 9 -6 9 -12z m725
-65 c-3 -27 -8 -68 -12 -93 -5 -41 -9 -76 -12 -106 -1 -7 -7 -14 -15 -17 -10
-4 -14 0 -11 12 2 10 6 44 9 76 15 137 23 175 37 175 6 0 8 -18 4 -47z m1136
-51 c-12 -22 -50 -57 -56 -51 -6 7 45 69 56 69 6 0 6 -6 0 -18z m-1034 -94
c-3 -7 -5 -2 -5 12 0 14 2 19 5 13 2 -7 2 -19 0 -25z m-1992 -70 c-9 -71 -28
-90 -23 -23 3 47 13 75 24 75 3 0 2 -24 -1 -52z m3010 0 c-2 -13 -6 -45 -9
-73 -4 -27 -8 -61 -11 -75 -2 -14 -7 -52 -11 -85 -6 -60 -10 -94 -13 -107 0
-5 -15 -8 -32 -8 -29 0 -31 2 -24 28 4 15 15 78 26 141 19 113 49 201 68 201
5 0 8 -10 6 -22z m-2495 -3 c0 -14 -77 -42 -87 -31 -4 4 60 38 85 45 1 1 2 -6
2 -14z m251 -30 c73 -38 126 -82 138 -116 6 -18 6 -29 0 -29 -5 0 -64 14 -132
31 -67 17 -126 32 -132 33 -5 1 -36 8 -67 15 -32 7 -58 16 -58 21 0 4 21 24
48 44 43 34 51 36 98 32 28 -2 75 -16 105 -31z m1975 0 c-9 -25 -88 -126 -94
-120 -7 6 80 134 92 135 4 0 6 -7 2 -15z m160 -22 c-2 -10 -10 -44 -17 -75 -7
-33 -18 -58 -25 -58 -9 0 -9 12 2 53 18 61 22 79 23 90 1 4 6 7 12 7 6 0 8 -8
5 -17z m-2916 -61 c0 -30 -8 -45 -20 -37 -9 6 0 65 11 65 5 0 9 -13 9 -28z
m2003 -47 c3 -16 0 -24 -7 -22 -14 4 -21 47 -8 47 5 0 12 -11 15 -25z m1646
11 c-4 -4 -106 -58 -284 -151 -60 -32 -150 -79 -200 -106 -49 -26 -106 -50
-126 -54 l-35 -7 4 37 c4 31 10 39 41 52 20 8 63 28 96 43 124 58 342 147 400
164 33 10 65 19 70 21 14 5 39 6 34 1z m-1049 -28 c-1 -17 -98 -120 -110 -116
-8 3 96 128 106 128 2 0 4 -6 4 -12z m-2110 -13 c109 -19 270 -79 324 -120 17
-13 17 -16 -15 -54 -20 -26 -38 -39 -48 -36 -48 14 -280 70 -376 91 -140 29
-183 37 -202 38 -36 0 -27 9 35 35 145 60 175 65 282 46z m2220 -14 c0 -6 -28
-31 -62 -57 -35 -27 -65 -51 -68 -54 -22 -25 -140 -109 -144 -102 -3 5 18 26
46 48 28 21 56 43 62 49 6 6 31 26 56 45 25 19 56 45 70 57 26 24 40 29 40 14z
m56 -53 c-7 -63 -10 -187 -4 -193 2 -2 17 2 32 10 36 19 32 20 45 -16 16 -47
14 -56 -16 -62 -16 -3 -66 -17 -113 -32 -61 -18 -114 -27 -188 -30 -57 -2
-112 -7 -122 -10 -10 -3 -35 -8 -56 -10 -22 -3 -65 -10 -97 -17 -48 -9 -61 -8
-67 3 -13 21 -2 29 26 19 24 -10 25 -9 19 19 -8 37 11 45 63 27 32 -12 43 -12
71 0 54 23 167 113 291 232 63 61 117 111 118 112 2 0 1 -24 -2 -52z m-2787
-25 c-4 -32 -10 -85 -14 -118 -7 -67 -13 -115 -20 -160 -3 -16 -7 -55 -10 -85
-3 -30 -7 -66 -10 -79 -2 -13 -7 -49 -10 -80 -8 -85 -11 -95 -24 -99 -9 -3
-12 4 -8 24 3 16 9 54 12 84 4 30 8 66 10 80 2 14 7 50 10 80 3 30 8 66 10 80
2 14 7 54 10 90 4 36 8 72 10 80 1 8 6 44 10 80 8 68 11 80 24 80 4 0 4 -26 0
-57z m91 31 c0 -8 -4 -14 -9 -14 -12 0 -32 26 -25 33 10 9 34 -4 34 -19z
m-165 -31 c-4 -27 -8 -59 -10 -73 -11 -101 -18 -158 -21 -175 -2 -11 -7 -45
-10 -75 -7 -60 -8 -76 -20 -165 -4 -33 -7 -68 -8 -77 0 -10 -7 -20 -14 -23
-14 -5 -13 32 4 150 2 17 6 55 9 85 3 30 8 66 10 80 9 57 15 105 31 245 7 66
10 75 25 75 7 0 8 -17 4 -47z m1251 0 c-2 -16 -5 -36 -5 -45 -1 -10 -6 -18
-12 -18 -10 0 -11 64 -2 83 10 18 23 4 19 -20z m1103 -23 c60 -31 69 -39 50
-42 -31 -4 -131 11 -142 21 -9 9 1 61 12 61 3 -1 39 -18 80 -40z m-519 23 c0
-7 -419 -238 -463 -255 -10 -4 -16 -4 -12 1 5 8 40 29 230 131 33 18 80 44
105 58 126 73 140 79 140 65z m469 -107 c35 -14 79 -28 98 -32 l34 -6 -30 -19
c-17 -10 -51 -21 -77 -24 -25 -3 -50 -7 -53 -10 -11 -6 -102 41 -131 67 -36
33 -66 78 -74 111 l-6 27 88 -44 c48 -24 117 -56 151 -70z m-2164 -69 c-9 -56
-18 -113 -20 -127 -17 -124 -28 -170 -41 -170 -9 0 -13 3 -11 8 5 7 10 37 22
122 3 25 12 79 20 121 8 42 17 98 21 125 3 27 9 54 13 59 13 22 12 -41 -4
-138z m1375 134 c0 -5 -27 -23 -60 -40 -33 -17 -60 -27 -60 -21 0 5 26 23 58
39 67 35 62 33 62 22z m1024 -26 c-34 -26 -51 -16 -19 10 17 14 32 20 34 14 1
-6 -5 -17 -15 -24z m-664 6 c0 -9 -165 -99 -337 -185 -113 -57 -173 -83 -161
-71 17 17 484 273 490 268 5 -2 8 -8 8 -12z m-1490 -6 c25 -4 56 -8 70 -11 14
-2 53 -9 86 -14 72 -12 235 -58 247 -69 14 -14 -103 -112 -228 -192 -96 -61
-125 -79 -130 -79 -3 0 -22 -11 -43 -23 -38 -24 -198 -99 -240 -112 -20 -6
-23 -4 -19 12 3 10 8 38 11 63 4 25 8 56 11 70 2 14 6 39 9 55 3 17 8 41 11
55 2 14 7 36 9 50 3 14 10 50 16 80 6 30 13 66 16 80 11 58 0 56 174 35z
m1675 -87 c71 -60 74 -63 48 -66 -23 -3 -220 -42 -283 -57 -8 -1 -103 -28
-210 -59 -107 -30 -216 -60 -241 -65 -25 -6 -54 -13 -65 -16 -10 -4 130 68
311 158 182 91 338 166 347 166 10 1 52 -27 93 -61z m987 -23 c3 -16 1 -25 -7
-25 -13 0 -27 35 -17 44 11 12 20 5 24 -19z m-1880 -35 c-2 -17 -10 -30 -17
-30 -7 0 -12 8 -10 18 2 9 4 25 4 34 1 10 7 15 14 12 9 -3 12 -16 9 -34z
m-221 -38 c-5 -10 -24 -29 -42 -42 -18 -14 -37 -30 -43 -36 -20 -19 -230 -169
-301 -216 -46 -29 -86 -48 -117 -52 -26 -4 -49 -7 -50 -6 -2 1 -16 -4 -33 -10
-47 -18 -17 3 70 50 91 48 335 207 433 281 68 51 100 64 83 31z m-175 -28
c-15 -14 -31 -22 -35 -19 -7 8 36 45 53 45 6 0 -2 -12 -18 -26z m259 4 c-3
-13 -7 -38 -9 -57 -3 -31 -2 -33 23 -28 25 5 29 1 46 -44 11 -27 23 -49 26
-49 4 0 21 8 38 17 23 14 33 15 42 6 14 -14 -11 -26 -72 -37 -19 -4 -43 -8
-54 -10 -11 -2 -37 -7 -59 -11 -21 -4 -48 -9 -60 -11 -11 -2 -50 -9 -86 -15
-36 -6 -103 -20 -150 -30 -46 -10 -86 -17 -87 -15 -2 2 20 19 49 39 114 77
175 122 261 193 49 41 91 74 93 74 2 0 2 -10 -1 -22z m1200 -9 c4 -5 -1 -9 -9
-9 -9 0 -33 -9 -53 -20 -46 -25 -65 -26 -56 -3 4 9 2 14 -3 11 -5 -3 -38 -9
-74 -13 -36 -4 -74 -9 -84 -11 -12 -2 -16 0 -10 5 5 5 32 12 59 16 28 3 59 8
70 10 11 3 40 7 63 9 24 3 45 6 47 8 8 8 45 6 50 -3z m-1522 -43 c-39 -27
-117 -69 -107 -57 21 23 109 79 117 74 5 -3 0 -11 -10 -17z m652 -6 c-3 -5
-12 -10 -18 -10 -7 0 -6 4 3 10 19 12 23 12 15 0z m-800 -86 c-11 -9 -37 -24
-57 -35 -20 -10 -65 -37 -100 -59 -34 -21 -64 -37 -67 -35 -6 7 -6 7 114 79
101 61 157 86 110 50z m-281 -153 c-5 -4 -24 -13 -42 -19 -26 -9 -33 -9 -29 1
2 6 19 17 38 23 35 12 50 10 33 -5z m-424 -887 c0 -32 -105 -295 -175 -439
-113 -231 -334 -552 -481 -698 -104 -104 -224 -191 -292 -212 -21 -6 -22 -4
-18 22 16 88 21 102 81 268 21 55 40 109 43 120 3 11 19 45 35 75 16 30 53
100 81 155 80 155 217 362 295 445 39 41 68 66 64 56 -6 -19 -5 -19 24 2 16
11 36 28 43 37 33 39 261 184 293 185 4 0 7 -7 7 -16z m21 -311 c-12 -20 -14
-14 -5 12 4 9 9 14 11 11 3 -2 0 -13 -6 -23z m-52 -124 c-101 -235 -193 -389
-372 -629 -173 -231 -356 -391 -488 -428 -20 -5 -42 -6 -48 -2 -7 4 0 7 16 8
44 1 72 15 159 81 72 54 116 99 280 281 187 208 339 448 451 707 19 46 37 82
39 80 2 -2 -14 -46 -37 -98z m707 -464 c-3 -8 -10 -15 -15 -15 -7 0 -6 10 1
26 12 26 25 16 14 -11z"/>
<path d="M9100 6550 c-103 -13 -153 -21 -231 -36 -92 -17 -404 -102 -534 -144
-124 -40 -246 -68 -335 -76 -149 -13 -162 -43 -75 -183 30 -49 58 -97 61 -107
9 -26 91 -139 132 -182 32 -34 33 -35 100 -29 59 4 127 22 361 96 l65 20 -25
-22 c-237 -215 -1439 -1137 -1483 -1137 -8 0 -103 34 -212 76 -110 41 -233 87
-274 101 -41 14 -79 29 -83 33 -5 4 4 20 20 34 37 35 136 82 141 68 4 -12 172
67 172 80 0 3 -9 8 -19 10 -14 2 -3 12 40 36 33 18 57 27 53 21 -16 -27 56 5
147 66 307 203 558 462 619 639 36 106 6 314 -55 381 -13 13 -34 48 -48 77
-48 105 -110 142 -232 141 -87 -2 -205 -12 -217 -19 -4 -3 -24 -7 -45 -10 -21
-2 -45 -6 -53 -9 -8 -3 -33 -7 -55 -10 -22 -2 -85 -19 -139 -37 -74 -25 -100
-30 -103 -20 -3 8 -25 -2 -66 -31 -34 -24 -89 -59 -122 -77 -85 -47 -274 -174
-312 -209 -18 -16 -54 -66 -81 -111 -48 -81 -48 -84 -40 -138 16 -99 31 -109
108 -69 37 18 45 26 42 46 -3 26 25 60 93 114 l39 32 -24 -42 c-14 -23 -53
-86 -86 -140 -34 -54 -104 -177 -155 -273 -50 -96 -102 -193 -115 -215 -13
-22 -32 -58 -44 -81 -11 -23 -35 -56 -53 -74 -31 -32 -118 -80 -145 -80 -7 0
-48 -14 -92 -31 -95 -36 -104 -52 -63 -112 15 -23 34 -47 42 -53 8 -6 11 -17
9 -25 -3 -8 6 -29 20 -48 l25 -34 -38 -71 c-82 -152 -176 -346 -220 -456 -25
-63 -54 -131 -63 -150 -19 -41 -18 -75 3 -107 24 -36 61 -30 84 15 27 51 26
34 -2 -36 -26 -63 -26 -81 -3 -118 24 -35 52 -30 79 14 25 41 26 44 90 183 25
53 65 129 91 168 25 39 62 107 82 151 20 43 41 78 46 77 5 -1 31 35 57 79 36
60 46 85 39 98 -6 10 -5 22 2 34 11 16 11 16 6 0 -11 -36 24 -17 50 27 22 39
32 46 67 52 38 6 39 7 17 14 -21 6 -19 7 15 9 149 7 255 5 251 -5 -3 -8 14
-10 53 -9 36 2 73 -3 106 -15 28 -11 117 -41 199 -67 121 -39 146 -50 132 -58
-74 -46 -223 -161 -234 -181 -11 -23 -10 -28 10 -48 29 -29 58 -73 63 -95 2
-9 13 -38 24 -63 19 -43 27 -50 128 -100 64 -32 125 -55 148 -57 56 -4 133 26
235 94 47 31 109 67 139 80 29 13 92 48 140 78 61 39 179 92 411 186 301 121
430 182 430 203 0 4 4 5 10 2 11 -7 62 24 56 34 -3 4 5 18 15 31 19 23 19 23
9 3 -10 -21 -8 -23 20 -23 22 0 51 16 107 60 43 34 79 56 83 50 4 -6 20 -2 43
10 44 24 51 25 43 5 -3 -9 0 -15 8 -15 8 0 17 8 20 17 6 14 9 15 15 4 6 -9 14
-5 30 18 28 39 58 55 95 53 18 -2 38 5 51 18 12 11 44 29 71 39 27 10 58 22
69 27 29 11 -13 -22 -220 -177 -216 -162 -396 -292 -645 -463 -173 -120 -230
-167 -230 -191 0 -6 14 -26 31 -45 17 -19 45 -70 62 -113 32 -78 32 -79 92
-105 33 -15 76 -37 95 -49 20 -12 54 -26 77 -31 59 -13 161 22 259 88 42 29
102 64 133 78 31 14 86 45 123 68 88 56 123 74 243 122 481 192 545 220 600
258 17 11 45 26 62 33 18 8 30 17 27 22 -3 5 2 19 11 31 15 21 16 21 13 3 -2
-15 3 -20 23 -21 17 -1 51 19 104 62 51 40 82 59 86 52 5 -8 18 -4 44 10 20
12 38 22 40 22 2 0 2 -12 0 -27 l-3 -27 19 23 c10 12 23 20 28 16 6 -3 20 8
32 24 25 33 71 56 94 47 10 -3 31 6 53 23 20 15 89 46 152 67 64 21 124 48
135 60 12 13 34 22 55 23 64 2 92 11 80 26 -8 9 -5 14 10 18 11 3 20 11 20 17
0 15 2 15 -174 -48 -76 -28 -134 -47 -130 -42 24 21 142 72 242 105 103 34
112 38 98 54 -13 14 -13 20 0 51 l15 35 -27 -28 c-18 -19 -30 -25 -36 -19 -12
12 -45 0 -91 -31 -16 -11 -79 -34 -140 -52 -98 -28 -269 -90 -362 -130 -16 -7
-124 -47 -240 -88 -115 -42 -246 -89 -290 -105 -121 -46 -123 -46 -75 -16 25
16 47 29 50 30 20 3 59 29 51 33 -5 4 -1 17 10 31 20 24 20 24 14 3 -12 -43
43 -24 135 47 46 36 81 59 77 52 -13 -20 21 -14 54 9 l29 20 0 -27 0 -28 21
22 c11 12 24 20 29 17 5 -3 17 5 27 18 28 36 70 60 95 54 14 -4 31 2 49 17 15
13 63 36 106 51 43 15 85 30 93 35 9 4 30 11 48 15 22 4 36 15 43 32 6 17 14
23 27 19 9 -3 37 -2 62 2 35 6 44 12 42 25 -2 10 4 17 12 17 15 0 32 18 24 26
-4 3 -160 -49 -252 -85 -50 -20 -39 -5 21 27 32 16 103 44 158 62 98 32 151
60 112 60 -20 0 -22 13 -6 42 15 27 2 37 -16 11 -10 -14 -22 -19 -40 -15 -17
3 -38 -4 -64 -21 -40 -27 -91 -46 -187 -71 -32 -8 -144 -49 -249 -90 -131 -51
-192 -70 -197 -62 -5 7 4 16 23 24 17 7 40 22 52 33 12 11 56 45 98 74 42 29
82 59 90 67 8 7 61 53 119 103 58 49 110 94 116 100 6 5 46 42 90 80 43 39
116 106 162 150 46 44 87 82 91 85 23 16 61 81 69 117 8 36 6 48 -18 95 -28
55 -32 62 -121 215 -30 50 -62 105 -71 122 -10 18 -33 38 -54 47 -37 16 -134
17 -222 4 -26 -5 -67 -11 -92 -14 -69 -9 -167 -30 -290 -60 -64 -16 -350 -100
-409 -120 -41 -15 -82 -26 -91 -26 -14 0 -102 142 -208 338 -21 39 -44 68 -63
78 -35 18 -120 24 -199 14z m-1800 -91 c0 -5 -26 -9 -57 -10 -32 0 -71 -3 -88
-5 -16 -3 -27 -2 -23 1 15 15 168 27 168 14z m45 1 c-3 -5 -13 -10 -21 -10 -8
0 -14 5 -14 10 0 6 9 10 21 10 11 0 17 -4 14 -10z m-415 -64 c0 -4 -94 -36
-106 -36 -22 0 20 24 53 30 52 10 53 11 53 6z m543 -265 c15 0 27 -5 27 -9 0
-17 -83 -119 -158 -196 -104 -106 -288 -247 -474 -364 -70 -43 -369 -202 -382
-202 -13 0 133 255 267 465 49 77 96 150 103 162 20 32 87 68 184 97 148 46
250 57 433 47z m1897 -325 c0 -11 15 -34 73 -106 7 -9 25 -34 41 -58 32 -47
67 -62 131 -55 31 3 298 78 395 111 20 7 -4 -16 -115 -108 -49 -41 -92 -77
-95 -80 -3 -3 -39 -32 -80 -65 -41 -33 -77 -62 -80 -65 -5 -5 -94 -76 -119
-94 -12 -9 -13 -7 -7 8 7 20 7 20 -14 1 -12 -11 -36 -20 -53 -21 -18 0 -51
-13 -75 -28 -23 -14 -82 -37 -130 -50 -71 -19 -328 -112 -407 -147 -11 -4 -63
-24 -115 -43 -52 -18 -183 -66 -291 -105 -107 -39 -199 -71 -204 -71 -6 0 8
10 30 21 22 12 41 25 43 30 2 4 10 5 18 2 8 -3 14 -1 14 5 0 5 9 12 21 15 12
3 19 9 16 14 -3 5 1 19 10 33 13 23 14 23 10 3 -10 -49 35 -35 134 41 40 30
78 52 85 49 8 -3 25 2 39 11 33 21 44 20 38 -4 -7 -26 9 -26 26 1 9 16 15 19
21 10 5 -9 14 -4 29 18 29 41 77 66 96 51 11 -9 19 -6 35 10 26 26 91 55 212
95 59 20 88 35 91 47 4 13 15 18 39 19 18 0 42 3 53 5 11 3 30 5 43 6 20 0 21
2 5 13 -15 11 -15 13 5 19 12 4 22 14 22 22 0 14 -19 9 -105 -26 -11 -5 -51
-19 -90 -31 -38 -13 -76 -27 -82 -32 -7 -5 -13 -6 -13 -1 0 15 120 70 225 104
121 40 120 39 99 54 -15 12 -15 15 0 44 18 35 8 44 -12 11 -9 -13 -19 -18 -31
-14 -12 3 -50 -10 -97 -34 -44 -21 -104 -45 -134 -51 -51 -12 -173 -54 -245
-85 -26 -11 -187 -69 -222 -80 -6 -2 -14 2 -17 10 -3 8 5 16 20 19 14 4 50 27
79 51 30 24 65 50 77 56 18 10 187 147 208 169 3 3 37 32 75 65 83 71 129 112
204 182 54 49 71 56 71 29z m-34 -665 c-16 -18 -154 -76 -162 -68 -5 5 149 81
175 86 2 1 -4 -8 -13 -18z"/>
<path d="M5605 6067 c-108 -33 -194 -97 -376 -277 -138 -138 -256 -274 -415
-481 -108 -141 -150 -189 -164 -189 -26 0 -60 -49 -60 -86 0 -26 -19 -73 -67
-163 -108 -203 -122 -235 -133 -290 -13 -68 -5 -98 35 -141 17 -19 37 -54 44
-77 12 -45 44 -75 156 -150 74 -49 90 -55 166 -54 68 0 124 15 154 41 11 10
59 33 107 53 153 61 351 180 503 299 55 44 68 62 38 52 -12 -4 -8 3 10 20 15
14 27 28 27 32 0 4 10 18 22 31 12 13 16 23 10 23 -6 0 -14 -5 -17 -10 -4 -6
-11 -8 -16 -4 -5 3 -7 10 -4 15 12 19 -9 8 -83 -42 l-75 -51 31 38 c16 22 33
50 37 63 7 21 5 23 -16 18 -21 -5 -20 -3 9 24 19 17 31 33 28 36 -3 4 4 18 16
31 23 25 23 25 1 13 -17 -9 -22 -8 -25 5 -2 11 -19 4 -73 -33 -257 -177 -591
-337 -748 -358 l-46 -7 3 34 c4 44 26 89 39 81 6 -4 8 0 4 11 -4 9 -3 15 1 12
4 -2 32 36 62 86 63 104 71 110 255 192 71 32 147 73 168 91 21 18 59 39 85
46 26 7 58 19 72 26 14 7 30 13 36 13 12 0 122 54 144 70 12 10 11 11 -9 6
-21 -4 -20 -2 10 24 19 16 37 29 42 30 4 0 7 4 7 8 0 4 -17 7 -37 5 -36 -3
-37 -2 -9 7 15 5 36 16 45 24 18 16 59 33 97 40 50 9 38 17 -14 10 -32 -4 -52
-3 -52 3 0 6 -85 -13 -190 -42 -104 -29 -190 -48 -190 -44 0 5 -8 9 -17 9 -11
0 -1 12 25 31 23 17 42 32 42 34 0 1 -17 1 -37 -2 -28 -3 -34 -1 -23 6 8 6 23
11 32 11 9 0 21 6 25 14 4 8 35 23 68 35 l60 21 -46 -6 c-33 -4 -48 -2 -57 9
-10 12 6 32 90 113 182 175 295 248 388 248 25 0 51 -2 58 -5 8 -2 19 3 25 12
24 37 -60 280 -119 345 -21 21 -32 25 -76 23 -29 -1 -66 -6 -83 -12z"/>
</g>
</svg>
